<svg preserveAspectRatio="none" overflow="visible" style="display: block;" width="140" height="140" viewBox="0 0 140 140" fill="none" xmlns="http://www.w3.org/2000/svg">
<g id="Layer_4" clip-path="url(#clip0_0_4)">
<path id="Vector" d="M139.918 69.8347C139.918 72.1074 140 74.3389 139.918 76.6116C139.628 84.0909 137.685 91.1983 134.751 98.0165C131.196 106.322 126.277 113.719 119.788 120.041C109.909 129.669 98.2523 135.909 84.6533 138.719C77.2957 140.248 69.8555 140.248 62.5393 139.669C47.2042 138.43 33.7705 132.273 22.4035 121.818C11.5739 111.86 4.58833 99.6281 1.48824 85.2066C0.0415302 78.4711 -0.247812 71.6529 0.165534 64.8347C1.03356 49.3388 6.61372 35.5785 16.782 23.843C27.1156 11.9422 40.0533 4.29753 55.5951 1.11571C61.1339 6.42421e-06 66.7554 6.46478e-06 72.3769 6.46478e-06C88.6627 -0.0413158 102.882 5.57852 115.323 15.8265C127.517 25.8678 135.123 38.7603 138.719 54.0909C139.918 59.2975 140.124 64.5455 139.918 69.8347ZM25.8756 68.4711C26.4543 68.8017 26.9503 69.0496 27.4463 69.2975C29.8024 70.4546 30.9184 72.438 31.4558 74.876C32.3651 78.8843 32.9025 82.9752 34.1425 86.8595C35.2585 90.3306 37.2013 93.5124 38.6066 96.8595C40.7974 102.025 44.3521 106.033 48.6096 109.504C50.263 110.868 51.8337 112.355 53.3217 113.926C55.8845 116.612 58.3232 119.463 60.9273 122.149C62.994 124.256 63.0353 124.091 65.4327 122.521C67.2101 121.364 69.1528 120.372 71.0956 119.504C76.3864 117.107 81.5119 114.256 87.34 113.223C87.712 113.14 88.1254 112.851 88.4147 112.562C91.9282 108.595 95.3589 104.628 98.9137 100.702C100.071 99.4215 101.27 98.1818 102.592 97.1074C103.998 95.9917 105.362 94.8347 105.858 93.0992C106.933 89.3389 107.842 85.5372 108.875 81.7769C109.619 78.967 110.322 76.1157 112.554 74.0496C114.083 72.6446 114.083 72.686 112.761 71.0744C109.702 67.1901 107.511 62.9339 107.387 57.8512C107.305 54.9174 106.602 52.1901 105.155 49.5868C103.543 46.7355 102.055 43.843 100.443 40.9917C99.823 39.876 99.0377 38.843 98.211 37.8512C95.3589 34.5041 92.6308 31.0331 89.5721 27.8926C87.588 25.8678 86.3067 23.2231 83.8266 21.6116C82.3385 20.6612 81.1398 19.2149 79.8585 17.9752C78.0811 16.157 76.5104 16.281 74.1957 17.5207C68.6155 20.4959 62.8287 23.2645 56.8765 25.4959C51.9577 27.3554 47.8242 29.7107 45.1375 34.3802C44.1868 36.0331 42.7401 37.5207 41.252 38.7603C37.7386 41.7355 35.7545 45.6612 33.7292 49.5868C33.6052 49.7934 33.5225 50 33.4812 50.2479C32.7785 53.6364 32.1584 57.0248 31.4558 60.3719C30.7944 63.595 29.8024 66.6529 26.2476 67.9339C26.1649 67.9339 26.0823 68.1405 25.8756 68.4711ZM62.746 5.41323C62.746 5.41323 62.7047 5.1653 62.6633 5.04133C62.2913 5.00001 61.9193 4.87604 61.5886 4.91736C58.9432 5.41323 56.2565 5.74381 53.6937 6.48761C51.0897 7.27273 48.5683 8.47108 46.0468 9.50414C45.5922 9.71075 45.1375 10.0413 44.7655 10.3719C42.0374 12.686 39.392 15.124 36.5399 17.3141C30.8771 21.6529 25.9169 26.6529 21.7008 32.3967C21.0808 33.2231 20.7915 34.0083 21.4941 35.0826C23.2302 37.8926 23.1062 38.1818 20.0061 39.4628C17.6914 40.4132 15.542 41.6942 14.3846 44.0496C11.7392 49.3802 9.3418 54.7934 8.06043 60.6198C7.48174 63.3471 6.94439 66.1984 7.15107 68.9256C7.44041 73.3058 8.2671 77.6446 9.09379 81.9835C9.79648 85.6198 10.2098 89.4215 12.6486 92.4793C14.0126 94.1736 15.294 95.9504 16.5753 97.7273C17.7327 99.2975 18.9314 100.868 19.9234 102.521C21.2875 104.835 22.5688 107.149 24.5116 109.091C27.157 111.694 29.637 114.504 32.4478 117.521C33.6465 115.826 34.6799 114.38 35.6719 112.934C35.8372 112.934 36.0439 112.975 36.2092 113.017C36.4572 114.256 36.7052 115.537 36.9119 116.777C37.4906 120.124 38.0693 123.471 41.9134 124.835C42.1201 124.917 42.3267 125.083 42.5334 125.207C48.1136 129.008 54.1897 131.736 60.7206 133.347C63.986 134.174 67.2928 134.835 70.5582 133.14C71.2609 132.769 72.1289 132.851 72.8729 132.562C73.6996 132.273 74.4437 131.818 75.1877 131.405C75.1463 131.198 75.0637 130.992 75.0223 130.826C74.2783 130.826 73.5343 130.785 72.7903 130.826C68.9462 131.074 65.2674 130.455 61.9606 128.43C58.3232 126.198 55.0164 123.512 52.1644 120.331C51.4617 119.504 50.5523 118.843 49.7256 118.141C45.3442 114.339 40.88 110.62 37.7799 105.661C35.8786 102.645 34.5145 99.2975 32.5718 96.3223C28.9344 90.6612 27.7357 84.3388 27.1983 77.8099C26.9503 74.876 26.0409 72.562 23.2302 71.281C22.1142 70.7851 20.9981 70.2066 19.9234 69.5868C19.3447 69.2562 18.8487 68.719 18.3114 68.2645C18.7661 67.7686 19.1794 67.1074 19.7168 66.7355C21.5768 65.6198 23.5609 64.6281 25.4209 63.5124C25.8756 63.2231 26.3716 62.6446 26.4543 62.1488C26.8263 59.6281 27.1156 57.0661 27.3636 54.5455C27.5703 52.8099 27.2396 50.8678 27.901 49.3388C29.3477 46.0744 31.0011 42.7686 33.1091 39.9174C35.2585 37.0248 38.0693 34.6694 40.5494 32.0248C42.9054 29.5041 44.2695 26.405 45.0961 23.0992C45.5095 21.4463 45.4268 19.7108 45.7575 18.0165C45.8815 17.3967 46.4189 16.6116 46.9562 16.405C47.8242 16.0744 48.4856 16.6529 48.6509 17.6446C48.7336 18.0579 48.8163 18.4711 48.8576 18.8843C48.9816 20.4132 49.0643 21.9008 49.1883 23.595C56.1738 22.2727 61.6713 17.8512 68.2021 15.3719C67.5821 14.7934 66.9621 14.2562 66.2594 14.0909C64.8127 13.7603 63.366 13.719 61.9193 13.4711C60.1832 13.1818 58.1992 11.2397 58.0752 9.83472C57.9098 8.05786 58.7779 6.94215 61.0926 6.03306C61.5886 5.82645 62.0846 5.57852 62.622 5.37191L62.746 5.41323ZM65.1021 9.00827C65.1021 9.00827 65.1847 9.38017 65.2261 9.58678C66.0114 9.58678 66.8381 9.66943 67.6235 9.58678C71.3849 9.04959 75.0223 9.33885 78.3291 11.405C80.5198 12.7686 82.6279 14.2975 84.6946 15.8265C85.852 16.6942 86.8853 17.686 87.8774 18.6777C90.7295 21.5289 93.4575 24.4215 96.3096 27.2314C98.7483 29.5868 101.228 31.9008 102.882 34.9174C104.37 37.686 105.693 40.5785 107.387 43.1818C110.818 48.4298 112.099 54.2975 112.885 60.3306C113.546 65.5372 116.233 69.2975 121.11 71.405C121.978 71.7769 122.846 72.1901 123.632 72.7273C124.334 73.2231 124.376 73.9256 123.384 74.1736C122.268 74.4628 121.152 74.5868 120.036 74.7521C116.977 75.2066 114.579 76.8595 113.587 79.7108C112.802 81.9422 112.595 84.5041 112.678 86.8595C112.802 90.0827 111.686 92.7273 109.826 95.1653C109.578 95.4546 109.33 95.7438 109.206 96.1157C107.429 101.157 103.047 104.008 99.451 107.521C97.219 109.669 95.2763 112.025 93.1682 114.339C93.0029 114.174 93.1682 114.339 93.2922 114.421C94.4496 115.413 95.6483 116.364 96.6816 117.479C97.0536 117.893 97.1363 118.76 96.971 119.339C96.8883 119.628 95.9789 119.917 95.5243 119.835C93.6229 119.504 91.7628 118.843 89.8614 118.636C87.9187 118.388 85.6866 117.893 83.9919 118.554C79.9411 120.165 76.097 122.397 72.1703 124.38C72.5423 125.537 72.6249 125.537 73.865 125.661C76.1384 125.909 78.3704 126.24 80.3132 127.645C82.6692 129.339 82.6692 131.488 80.1478 133.058C79.3211 133.554 78.4531 134.008 77.6264 134.463C77.6264 134.628 77.7091 134.752 77.7091 134.917C78.7424 134.793 79.8171 134.752 80.8505 134.545C83.3719 134.008 85.9346 133.512 88.4147 132.769C90.3161 132.19 92.0935 131.281 93.9122 130.455C94.3669 130.248 94.8216 129.959 95.2349 129.628C98.2937 127.107 101.311 124.545 104.37 122.025C108.875 118.306 113.215 114.421 116.853 109.793C118.63 107.521 120.284 105.413 119.085 102.066C118.176 99.6281 118.837 99.1736 121.565 99.1322C124.293 99.1322 124.624 98.8843 125.616 96.3223C125.74 96.0331 125.864 95.7025 126.029 95.4132C127.517 92.0661 129.171 88.8017 130.411 85.3719C132.436 79.8347 133.635 74.1322 132.808 68.1818C132.188 63.9256 131.651 59.6281 130.824 55.4132C130.204 52.2727 129.295 49.1322 127.228 46.5289C125.492 44.3388 123.838 42.1488 122.102 40C119.829 37.1901 118.878 33.5537 116.068 31.0744C114.455 29.6694 113.133 27.9339 111.727 26.3223C111.025 25.5372 110.239 25.4546 109.289 25.8265C108.255 26.2397 107.181 26.6116 105.775 27.1074C105.651 25.9917 105.527 25.0826 105.486 24.1736C105.362 21.7355 105.114 19.2149 102.882 17.7273C99.8644 15.6612 96.8056 13.5537 93.5402 11.9008C88.7454 9.54546 83.8679 7.43802 78.5771 6.19835C74.1956 5.1653 70.3515 6.19835 66.4661 7.89257C65.9701 8.09918 65.5981 8.55373 65.1434 8.92563L65.1021 9.00827Z" fill="#111011"/>
<path id="Vector_2" d="M25.8754 68.4711C26.0821 68.1405 26.1234 67.9752 26.2474 67.9339C29.8022 66.6529 30.7942 63.595 31.4556 60.3719C32.1583 56.9835 32.8196 53.595 33.481 50.2479C33.5223 50.0413 33.605 49.7934 33.729 49.5868C35.7957 45.6612 37.7797 41.6942 41.2518 38.7603C42.7399 37.5207 44.1453 36.0331 45.1373 34.3802C47.8654 29.7107 51.9988 27.3554 56.8763 25.4959C62.8285 23.2645 68.574 20.4959 74.1955 17.5207C76.5515 16.281 78.0809 16.1983 79.8583 17.9752C81.1397 19.2562 82.3384 20.6612 83.8264 21.6116C86.3065 23.2231 87.5878 25.8678 89.5719 27.8926C92.6306 31.0744 95.3587 34.5041 98.2108 37.8512C99.0375 38.843 99.8229 39.876 100.443 40.9917C102.055 43.843 103.543 46.7355 105.155 49.5868C106.602 52.1488 107.304 54.9174 107.387 57.8512C107.511 62.9339 109.702 67.1901 112.761 71.0744C114.042 72.686 114.083 72.6446 112.554 74.0496C110.28 76.1157 109.619 78.9669 108.875 81.7769C107.842 85.5372 106.932 89.3388 105.858 93.0992C105.362 94.8347 103.998 95.9917 102.592 97.1074C101.27 98.1818 100.03 99.4215 98.9135 100.702C95.4001 104.628 91.928 108.636 88.4145 112.562C88.1252 112.851 87.7118 113.14 87.3398 113.223C81.5117 114.298 76.3862 117.107 71.0954 119.504C69.1526 120.372 67.2099 121.364 65.4325 122.521C63.0351 124.091 62.9938 124.256 60.9271 122.149C58.323 119.504 55.8843 116.653 53.3215 113.926C51.8335 112.355 50.2628 110.868 48.6094 109.504C44.3519 105.992 40.7972 102.025 38.6064 96.8595C37.2011 93.4711 35.217 90.2893 34.1423 86.8595C32.9023 82.9752 32.3236 78.8843 31.4556 74.876C30.9182 72.438 29.7609 70.4545 27.4461 69.2975C26.9501 69.0496 26.4541 68.7603 25.8754 68.4711ZM64.4405 65.7438C64.4405 65.7438 64.1098 65.7851 63.9445 65.8264C63.2831 63.2645 62.7458 60.7025 61.8778 58.2231C61.2164 56.3636 60.4724 54.3388 59.1497 52.9752C56.9176 50.6198 53.7349 49.5455 50.7588 48.3884C49.2294 47.8099 48.6094 48.3884 48.6921 50.0826C48.7334 51.1983 48.9401 52.3554 49.2707 53.4298C50.0561 55.7438 51.1308 57.9752 51.8748 60.3306C53.9002 66.6116 57.9097 71.3223 63.3658 74.7934C64.9779 75.8264 66.2179 76.9008 66.7552 78.6777C67.7059 81.6942 68.698 84.7107 69.566 87.7686C70.1033 89.7107 70.5993 91.6942 70.806 93.719C70.9714 95.5372 70.062 95.9504 68.5326 95.0413C66.5899 93.9256 64.7299 92.6446 62.7458 91.6529C61.5884 91.0744 60.2657 90.9091 58.9844 90.6612C58.6123 90.5785 57.827 90.8678 57.7857 91.1157C57.703 91.6529 57.7857 92.314 58.075 92.8512C58.2817 93.2645 58.819 93.595 59.2324 93.8843C61.5058 95.2479 63.8618 96.5289 66.1352 97.8926C67.8713 98.9256 69.8967 99.876 69.9793 102.231C70.062 103.884 69.814 105.537 69.6073 107.19C69.3593 109.091 68.822 110.992 68.6153 112.893C68.45 114.463 69.0286 114.917 70.558 114.463C71.054 114.298 71.4674 113.595 71.7567 113.058C74.1128 108.802 74.5261 103.967 76.0142 99.4215C76.3862 98.2231 77.0475 97.6446 78.1222 97.8099C79.1969 97.9752 80.2716 98.4711 81.2637 98.9669C82.3384 99.5455 83.3304 100.124 84.5291 99.7107C85.1078 97.7686 84.2811 96.405 82.669 95.6612C81.181 94.9587 79.6103 94.3802 77.9982 94.1322C76.5929 93.9256 76.5515 93.1405 77.0475 92.3967C77.9156 91.0331 78.8249 89.3388 80.1476 88.6777C83.2477 87.1901 85.1904 84.6694 87.1745 82.1488C90.6466 77.7273 92.6307 72.7686 92.0933 67.0661C91.9693 65.7025 91.7626 64.3388 91.5146 62.9752C91.3906 62.3967 91.0599 61.4463 90.7293 61.405C90.1092 61.3223 89.1999 61.5702 88.7039 62.0248C86.9265 63.719 85.2731 65.4959 83.6611 67.3141C82.793 68.2645 82.049 69.3388 81.3877 70.4132C78.2876 75.8678 76.9649 81.9421 75.1461 87.8512C75.0221 88.3058 74.9395 88.8017 74.8568 89.2562C74.4848 88.4711 74.3608 87.7273 74.2781 86.9835C73.8648 81.0744 75.8488 75.6612 78.0809 70.3719C79.4036 67.2727 81.0983 64.3388 82.3797 61.2397C82.9584 59.7934 82.917 58.0992 83.289 56.5289C84.4051 51.7769 84.1571 47.1074 82.5864 42.5207C82.3797 41.9835 81.7597 41.1983 81.3463 41.1983C80.8503 41.1983 80.1063 41.8182 79.8583 42.3554C78.6596 45.0413 77.5849 47.7686 76.5515 50.4959C74.2781 56.4876 73.5341 62.8099 73.2034 69.1322C73.0381 72.6859 72.7074 76.1157 71.7154 79.5868C71.178 78.0165 70.7234 76.4876 70.3927 74.876C69.194 69.0496 68.1606 63.1818 68.5326 57.1901C68.5326 56.7355 68.574 56.1983 68.822 55.8264C69.938 54.0496 71.1367 52.3554 72.2941 50.6198C73.0794 49.3802 74.0301 48.1818 74.5261 46.8595C75.8075 43.595 76.1795 40.2479 75.8075 36.6529C75.5182 33.6364 75.0635 30.7438 73.9474 27.9339C73.2034 25.9504 71.9634 25.7025 70.7234 27.3967C69.5247 29.0496 68.5326 30.8264 67.6233 32.6859C66.0526 35.9917 66.1352 39.5868 65.8872 43.1405C65.7219 45.6612 65.9699 48.2231 65.8045 50.7438C65.5152 55.0413 65.1019 59.3388 64.6885 63.6364C64.6058 64.2975 64.4405 65 64.2752 65.6612L64.4405 65.7438ZM45.6746 70.7851C45.8813 72.0661 45.7986 73.0579 46.212 73.8017C48.1547 77.4793 50.2214 81.157 53.8175 83.5124C57.951 86.2397 62.2498 88.719 66.5072 91.1983C67.0859 91.5289 67.8713 91.5702 68.5326 91.6942C69.566 91.8595 69.7727 91.1157 69.6487 90.3719C69.5247 89.5868 69.3593 88.7603 68.9873 88.0578C66.9206 84.0496 64.2338 80.3719 60.7617 77.6859C57.4136 75.124 53.4455 73.3471 49.6428 71.405C48.6094 70.8678 47.204 70.9917 45.716 70.7438L45.6746 70.7851ZM64.6472 49.6281C64.0272 47.8512 63.5312 46.2397 62.8698 44.6694C62.3324 43.3471 61.0511 43.6364 60.0177 43.719C59.6044 43.719 58.9017 44.2149 58.9017 44.5455C58.819 46.7355 58.447 49.0083 60.059 50.9504C60.9684 52.0661 62.1258 52.3554 63.2005 51.9008C63.8618 51.6116 64.1512 50.4545 64.6472 49.6281ZM85.9345 58.7603C88.7452 59.3388 90.1092 58.7603 91.0599 56.405C91.432 55.5372 91.5973 54.4628 91.5559 53.5124C91.5559 52.7686 91.2253 51.5289 90.7293 51.3636C89.6959 50.9917 88.4145 50.8678 87.4638 51.9835C85.6451 54.0083 85.7278 56.3636 85.9345 58.8016V58.7603Z" fill="#A3AFC3"/>
<path id="Vector_3" d="M62.7458 5.41322C62.2498 5.61983 61.7538 5.86777 61.2164 6.07438C58.9017 6.98347 58.0337 8.05785 58.199 9.87603C58.323 11.281 60.3071 13.1818 62.0431 13.5124C63.4898 13.7603 64.9779 13.843 66.3832 14.1322C67.0859 14.2975 67.7473 14.8347 68.326 15.4132C61.7951 17.9339 56.2976 22.314 49.3121 23.6364C49.1881 21.9835 49.1054 20.4545 48.9814 18.9256C48.9814 18.5124 48.8161 18.0992 48.7747 17.686C48.6094 16.6942 47.9894 16.1157 47.08 16.4463C46.5427 16.6529 46.0053 17.438 45.8813 18.0579C45.5506 19.7107 45.6333 21.4876 45.22 23.1405C44.3519 26.405 43.0292 29.5041 40.6732 32.0661C38.1931 34.7107 35.341 37.0661 33.2329 39.9587C31.1249 42.8099 29.4715 46.1157 28.0248 49.3802C27.3634 50.9091 27.6528 52.8512 27.4875 54.5868C27.1981 57.1488 26.9501 59.6694 26.5781 62.1901C26.4954 62.6859 25.9994 63.2645 25.5447 63.5537C23.6847 64.6694 21.7006 65.6612 19.8406 66.7769C19.2619 67.1074 18.8899 67.7686 18.4352 68.3058C18.9725 68.7603 19.4272 69.2562 20.0472 69.6281C21.1219 70.2479 22.238 70.8264 23.354 71.3223C26.1647 72.6033 27.0741 74.876 27.3221 77.8512C27.8595 84.3802 29.0582 90.7025 32.6956 96.3636C34.6383 99.3388 36.0024 102.686 37.9037 105.702C41.0452 110.661 45.468 114.421 49.8494 118.182C50.6761 118.884 51.5855 119.545 52.2882 120.372C55.1402 123.595 58.447 126.24 62.0844 128.471C65.3912 130.496 69.07 131.116 72.9141 130.868C73.6581 130.826 74.4021 130.868 75.1461 130.868C75.1875 131.074 75.2701 131.281 75.3115 131.446C74.5261 131.818 73.7821 132.314 72.9968 132.603C72.2527 132.893 71.3434 132.81 70.682 133.182C67.4166 134.876 64.1098 134.215 60.8444 133.388C54.3136 131.736 48.2374 129.05 42.6572 125.248C42.4505 125.124 42.2852 124.959 42.0372 124.876C38.1931 123.554 37.6144 120.207 37.0357 116.818C36.8291 115.537 36.581 114.298 36.333 113.058C36.1677 113.058 35.961 113.017 35.7957 112.975C34.8037 114.421 33.7703 115.826 32.5716 117.562C29.7609 114.545 27.2808 111.777 24.6354 109.132C22.6926 107.19 21.4113 104.876 20.0472 102.562C19.0552 100.909 17.8565 99.3388 16.6991 97.7686C15.4178 95.9917 14.1364 94.2562 12.7724 92.5207C10.3336 89.4628 9.92028 85.6612 9.2176 82.0248C8.39091 77.7273 7.60555 73.3471 7.27487 68.9669C7.0682 66.2397 7.56422 63.3884 8.18423 60.6612C9.4656 54.8347 11.863 49.4215 14.5084 44.0909C15.6658 41.7355 17.8152 40.4959 20.1299 39.5041C23.23 38.2231 23.3953 37.9339 21.618 35.124C20.9566 34.0496 21.2459 33.3058 21.8246 32.438C26.0407 26.6942 31.0009 21.6942 36.6637 17.3554C39.5158 15.1653 42.1199 12.7273 44.8893 10.4132C45.3026 10.0826 45.716 9.75207 46.1707 9.54545C48.6921 8.5124 51.2135 7.31405 53.8175 6.52893C56.3803 5.78512 59.067 5.41322 61.7124 4.95868C62.0431 4.87603 62.4151 5.04132 62.7871 5.08264C62.7871 5.20661 62.8285 5.33058 62.8698 5.45455L62.7458 5.41322ZM52.2468 13.8843C53.1562 13.6777 54.3136 13.5537 55.3056 13.0165C55.8016 12.7686 56.1736 11.8182 56.1736 11.1983C56.1736 10.7025 55.6776 9.95868 55.2229 9.71074C53.8175 8.92562 50.3041 9.66942 49.2294 10.8678C48.4441 11.7355 48.6507 13.1818 49.6841 13.4711C50.4694 13.6777 51.2548 13.719 52.3295 13.8843H52.2468Z" fill="#E4F3DA"/>
<path id="Vector_4" d="M65.1019 9.00826C65.5565 8.67769 65.9285 8.18182 66.4246 7.97521C70.31 6.32231 74.1541 5.24793 78.5356 6.28099C83.8264 7.52066 88.7039 9.58678 93.4987 11.9835C96.7641 13.595 99.7815 15.7438 102.84 17.8099C105.072 19.3388 105.32 21.8182 105.444 24.2562C105.486 25.1653 105.61 26.0744 105.734 27.1901C107.098 26.6942 108.172 26.3636 109.247 25.9091C110.198 25.5372 110.983 25.6198 111.686 26.405C113.133 28.0165 114.455 29.7521 116.026 31.157C118.837 33.6364 119.829 37.2727 122.061 40.0826C123.797 42.2314 125.45 44.4628 127.186 46.6116C129.253 49.2149 130.121 52.3554 130.782 55.4959C131.65 59.7107 132.146 64.0083 132.766 68.2645C133.634 74.2149 132.436 79.9174 130.369 85.4545C129.088 88.8843 127.434 92.1488 125.988 95.4959C125.864 95.7851 125.698 96.1157 125.574 96.405C124.582 98.9669 124.21 99.2149 121.523 99.2149C118.795 99.2149 118.134 99.6694 119.043 102.149C120.242 105.455 118.589 107.603 116.811 109.876C113.215 114.504 108.875 118.43 104.328 122.107C101.27 124.628 98.2521 127.19 95.1934 129.711C94.78 130.041 94.3254 130.331 93.8707 130.537C92.052 131.322 90.2746 132.273 88.3732 132.851C85.8931 133.595 83.3304 134.091 80.809 134.628C79.7756 134.835 78.7009 134.876 77.6676 135C77.6676 134.835 77.5849 134.711 77.5849 134.545C78.4116 134.091 79.2796 133.636 80.1063 133.14C82.6277 131.57 82.6277 129.421 80.2716 127.727C78.3289 126.364 76.0968 125.992 73.8234 125.744C72.6247 125.62 72.5421 125.62 72.1287 124.463C76.0555 122.479 79.8996 120.248 83.9504 118.636C85.6451 117.975 87.8772 118.471 89.8199 118.719C91.7213 118.967 93.5813 119.587 95.4827 119.917C95.9374 120 96.8468 119.711 96.9294 119.421C97.0948 118.843 97.0121 117.975 96.6401 117.562C95.6067 116.446 94.408 115.496 93.2507 114.504C93.1267 114.38 92.9613 114.256 93.1267 114.421C95.2347 112.149 97.1774 109.752 99.4095 107.603C103.047 104.091 107.387 101.281 109.164 96.1983C109.288 95.8678 109.578 95.5372 109.784 95.2479C111.603 92.7686 112.719 90.1653 112.637 86.9422C112.554 84.5455 112.802 82.0248 113.546 79.7934C114.538 76.9421 116.935 75.2893 119.994 74.8347C121.11 74.6694 122.267 74.5455 123.342 74.2562C124.334 74.0083 124.293 73.3471 123.59 72.8099C122.805 72.2727 121.937 71.8182 121.069 71.4876C116.15 69.3802 113.505 65.6198 112.843 60.4132C112.058 54.3388 110.776 48.5124 107.346 43.2645C105.651 40.6198 104.328 37.7686 102.84 35C101.187 31.9835 98.7068 29.6694 96.2681 27.314C93.416 24.5041 90.6466 21.6116 87.8358 18.7603C86.8438 17.7686 85.8104 16.7355 84.6531 15.9091C82.5864 14.3802 80.4783 12.8512 78.2876 11.4876C74.9808 9.42149 71.3434 9.13223 67.5819 9.66942C66.7966 9.79339 65.9699 9.66942 65.1845 9.66942C65.1432 9.46281 65.1019 9.29752 65.0605 9.09091L65.1019 9.00826ZM91.8866 124.256C89.5306 124.091 87.5052 124.876 85.7691 126.446C84.8184 127.314 85.0251 128.512 86.0585 128.967C88.4145 130 91.7626 129.463 93.416 127.521C93.9947 126.86 94.0774 125.744 94.3667 124.835C93.6227 124.628 92.8787 124.421 92.1346 124.256C92.052 124.256 91.928 124.256 91.8453 124.256H91.8866Z" fill="#E4F3DA"/>
<path id="Vector_5" d="M77.0889 92.3967C76.5929 93.1405 76.6755 93.9256 78.0396 94.1322C79.6516 94.3802 81.2223 94.9587 82.7104 95.6612C84.3224 96.405 85.1491 97.7686 84.5704 99.7107C83.3304 100.083 82.3384 99.5041 81.2637 98.9256C80.313 98.3884 79.2383 97.9339 78.1222 97.7686C77.0475 97.562 76.3862 98.1818 76.0142 99.3802C74.5261 103.884 74.1128 108.76 71.7567 113.017C71.4674 113.554 71.054 114.256 70.558 114.421C69.0286 114.876 68.45 114.421 68.6153 112.851C68.822 110.95 69.318 109.05 69.6073 107.149C69.814 105.496 70.062 103.843 69.9793 102.19C69.8553 99.7934 67.8299 98.8843 66.0939 97.8099C63.8205 96.4463 61.5058 95.1653 59.191 93.8017C58.7363 93.5537 58.2403 93.2231 58.0337 92.8099C57.7857 92.314 57.6616 91.6529 57.7443 91.0744C57.7857 90.8678 58.571 90.5785 58.943 90.6198C60.2244 90.8678 61.5884 91.0331 62.7458 91.6116C64.7299 92.6033 66.5899 93.8843 68.5326 95C70.1033 95.9091 71.0127 95.4959 70.806 93.6777C70.6407 91.6529 70.1033 89.6694 69.566 87.7273C68.698 84.6694 67.7059 81.6529 66.7552 78.6364C66.2179 76.8595 64.9779 75.7851 63.3658 74.7521C57.9097 71.281 53.9002 66.5702 51.8748 60.2893C51.1308 57.9752 50.0561 55.7438 49.2707 53.4298C48.8987 52.3554 48.7334 51.1983 48.6921 50.0826C48.6094 48.4297 49.1881 47.8099 50.7175 48.3884C53.6935 49.5455 56.9176 50.6198 59.1497 52.9752C60.4311 54.3388 61.1751 56.3636 61.8364 58.2231C62.7045 60.7025 63.2418 63.3058 63.9032 65.8264C64.0685 65.8264 64.2752 65.8264 64.4405 65.7438C64.5645 65.0826 64.7712 64.4215 64.8125 63.719C65.2259 59.4215 65.6392 55.124 65.9285 50.8264C66.0939 48.3058 65.8459 45.7438 66.0112 43.2231C66.2592 39.6694 66.1352 36.0744 67.7473 32.7686C68.6153 30.9091 69.6073 29.1322 70.806 27.4793C72.0461 25.7851 73.2448 26.0744 74.0301 28.0165C75.1048 30.8264 75.5595 33.719 75.8488 36.7355C76.2208 40.2893 75.8488 43.6777 74.5675 46.9421C74.0715 48.2645 73.1208 49.4628 72.3354 50.7025C71.2194 52.438 69.9793 54.1322 68.8633 55.9091C68.6566 56.281 68.6153 56.8182 68.574 57.2727C68.2019 63.2645 69.2353 69.1322 70.434 74.9587C70.7647 76.5289 71.178 78.0992 71.7567 79.6694C72.7487 76.1983 73.0794 72.7273 73.2448 69.2149C73.5754 62.8512 74.3195 56.5702 76.5929 50.5372C77.6676 47.8099 78.7423 45.0826 79.941 42.3967C80.1476 41.8595 80.8916 41.2397 81.3877 41.2397C81.8423 41.2397 82.4624 42.0248 82.669 42.562C84.1984 47.1488 84.4877 51.8182 83.3717 56.5702C82.9997 58.1405 83.041 59.8347 82.4624 61.281C81.181 64.3802 79.4863 67.3141 78.1636 70.4132C75.8902 75.7025 73.9061 81.0744 74.3195 87.0248C74.4021 87.7686 74.5261 88.4711 74.8981 89.2562C74.9808 88.8017 75.0635 88.3058 75.1875 87.8512C77.0062 81.9421 78.3289 75.8264 81.429 70.4132C82.0903 69.2975 82.8344 68.2231 83.7024 67.2727C85.3144 65.4545 87.0092 63.6777 88.7452 61.9835C89.1999 61.5289 90.1092 61.281 90.7706 61.3636C91.1013 61.4463 91.4319 62.3967 91.5559 62.9752C91.8453 64.2975 92.0106 65.6612 92.1346 67.0248C92.7133 72.7686 90.7293 77.7273 87.2572 82.1488C85.2731 84.6694 83.289 87.1901 80.2303 88.6777C78.8663 89.3388 77.9982 91.0331 77.0889 92.3967Z" fill="#111011"/>
<path id="Vector_6" d="M45.6746 70.8264C47.204 71.0331 48.5681 70.9504 49.6014 71.4876C53.4042 73.4297 57.4136 75.1653 60.7204 77.7686C64.1925 80.4545 66.8792 84.1322 68.946 88.1405C69.318 88.843 69.4833 89.6694 69.6073 90.4545C69.69 91.1983 69.5247 91.9421 68.4913 91.7769C67.7886 91.6529 67.0446 91.6529 66.4659 91.281C62.2084 88.7603 57.9097 86.281 53.7762 83.595C50.1801 81.2397 48.1134 77.562 46.1707 73.8843C45.7573 73.1405 45.84 72.1488 45.6333 70.8678L45.6746 70.8264Z" fill="#111011"/>
<path id="Vector_7" d="M64.6058 49.6694C64.1098 50.5372 63.8205 51.6529 63.1591 51.9421C62.0844 52.3967 60.9271 52.1074 60.0177 50.9917C58.4057 49.0496 58.7777 46.7769 58.8603 44.5868C58.8603 44.2975 59.563 43.8017 59.9764 43.7603C61.0097 43.6777 62.2911 43.3884 62.8285 44.7107C63.4898 46.281 63.9445 47.8926 64.6058 49.6694Z" fill="#111011"/>
<path id="Vector_8" d="M85.9345 58.7603C85.7278 56.3636 85.6451 53.9669 87.4638 51.9421C88.4145 50.8678 89.6959 50.9504 90.7293 51.3223C91.2253 51.4876 91.5146 52.7273 91.5559 53.4711C91.5559 54.4215 91.432 55.4959 91.0599 56.3636C90.1092 58.719 88.7452 59.2975 85.9345 58.719V58.7603Z" fill="#111011"/>
<path id="Vector_9" d="M52.2468 13.9256C51.2135 13.7603 50.3868 13.719 49.6014 13.5124C48.6094 13.2645 48.3614 11.8182 49.1467 10.9091C50.2214 9.71074 53.7349 8.92562 55.1402 9.75207C55.5949 10.0413 56.1323 10.7438 56.0909 11.2397C56.0909 11.8595 55.7189 12.8099 55.2229 13.0579C54.2309 13.5537 53.0735 13.6777 52.1642 13.9256H52.2468Z" fill="#111011"/>
<path id="Vector_10" d="M91.8866 124.256C91.8866 124.256 92.0933 124.256 92.176 124.256C92.92 124.463 93.664 124.628 94.408 124.835C94.1187 125.744 94.036 126.818 93.4573 127.521C91.804 129.463 88.4559 130 86.0998 128.967C85.0664 128.512 84.8598 127.314 85.8105 126.446C87.5465 124.876 89.5719 124.132 91.928 124.256H91.8866Z" fill="#111011"/>
<path id="Vector_11" d="M68.6566 45.6198C68.6566 43.0992 68.4086 40.9091 68.7393 38.7603C68.9873 37.0661 69.8553 35.4132 70.5167 33.8017C70.5993 33.5537 71.2194 33.3884 71.55 33.4298C71.8394 33.5124 72.2114 33.9256 72.2527 34.2562C72.6247 38.0992 72.0461 41.7355 70.186 45.1653C70.1033 45.3306 69.7313 45.3306 68.698 45.5785L68.6566 45.6198Z" fill="#F6856D"/>
<path id="Vector_12" d="M86.9265 68.1818C87.9185 71.6116 85.6451 76.0331 82.0077 77.8512C81.0156 74.5868 83.1237 70.4545 86.9265 68.1818Z" fill="#F6856D"/>
<path id="Vector_13" d="M55.2642 53.3471C58.695 55.2479 59.9764 57.8926 59.1084 61.1157C55.6776 59.1322 54.4376 56.6116 55.2642 53.3471Z" fill="#F6856D"/>
</g>
<defs>
<clipPath id="clip0_0_4">
<rect width="140" height="140" fill="white"/>
</clipPath>
</defs>
</svg>
